<?xml version="1.0" encoding="utf-8"?>
<!-- Generator: Adobe Illustrator 24.2.1, SVG Export Plug-In . SVG Version: 6.00 Build 0)  -->
<svg version="1.1" id="Layer_1" xmlns="http://www.w3.org/2000/svg" xmlns:xlink="http://www.w3.org/1999/xlink" x="0px" y="0px"
	 viewBox="0 0 512 512" style="enable-background:new 0 0 512 512;" xml:space="preserve">
<style type="text/css">
	.st0{fill:#F6A230;}
	.st1{fill:#C66500;}
	.st2{fill:#D53349;}
	.st3{fill:#FFE285;}
	.st4{fill:#53180F;}
	.st5{font-family:'OleoScriptSwashCaps-Bold';}
	.st6{font-size:110px;}
	.st7{fill:#A0522D;}
</style>
<path class="st0" d="M156.7,290.7l99.2,203.9L448.6,98.6c-128.5-45.3-266.4-42-385.5,0l84.6,173.9"/>
<path class="st1" d="M475.8,43.2c-13.6-3.7-29.3-0.7-42.8-4.5c-14.5-4-27.1-15.9-41.8-18.9c-14.7-3-31,2.9-45.9,0.9
	c-14.9-2-29-12-44-13c-14.9-1-30.3,7.1-45.4,7.1h0.2c-15.1,0-30.4-8.1-45.4-7.1c-15,1-29.1,11-44,13c-14.9,2-31.2-3.9-45.9-0.9
	c-14.7,3-27.3,14.9-41.8,18.9c-13.5,3.8-29.2,0.8-42.8,4.5l27,55.4l0,0c119.1-42,257-45.3,385.5,0L475.8,43.2z"/>
<g>
	<circle class="st2" cx="186.4" cy="153.7" r="46.6"/>
	<circle class="st2" cx="255.9" cy="323.9" r="35.4"/>
</g>
<path class="st3" d="M286.6,179.3l-19,19c-9.8,9.8-9.8,25.7,0,35.5c5.5,5.5,14.3,5.5,19.8,0l5.1-5.1l19.4,19.4l24.4-24.4l-19.4-19.4
	l5.1-5.1c5.5-5.5,5.5-14.3,0-19.8C312.2,169.5,296.3,169.5,286.6,179.3z"/>
<g>
	<path class="st4" d="M324.8,93.5c-24.8-3.2-48.6-4.9-68.8-4.9v15.2c19.5,0,42.6,1.7,66.8,4.8L324.8,93.5z"/>
	<path class="st4" d="M486.7,38.2l-8.9-2.4c-7.7-2.1-15.5-2.3-23.2-2.5c-7.1-0.2-13.7-0.4-19.6-2c-5.9-1.6-11.7-4.9-17.9-8.4
		c-7.6-4.3-15.5-8.8-24.5-10.6c-3.4-0.7-6.9-1-10.9-1c-5.3,0-10.6,0.6-15.7,1.2c-4.9,0.5-9.5,1.1-14,1.1c-2.1,0-4-0.1-5.8-0.4
		c-6.1-0.8-12.3-3.3-18.8-5.9c-8.1-3.2-16.5-6.6-25.7-7.2c-1-0.1-2.1-0.1-3.1-0.1c-8,0-15.7,1.9-23.2,3.8
		c-6.9,1.7-13.3,3.3-19.5,3.4c-6.2,0-12.6-1.6-19.5-3.4C229,1.9,221.3,0,213.3,0c-1,0-2.1,0-3.1,0.1c-9.2,0.6-17.6,4-25.7,7.2
		c-6.6,2.6-12.8,5.1-18.8,5.9c-1.8,0.2-3.7,0.4-5.8,0.4c-4.5,0-9.1-0.5-14-1.1c-5.1-0.6-10.4-1.2-15.7-1.2c-4,0-7.6,0.3-10.9,1
		c-9,1.8-16.9,6.3-24.5,10.6c-6.2,3.5-12,6.8-17.9,8.4c-5.9,1.6-12.6,1.8-19.6,2c-7.6,0.2-15.5,0.4-23.2,2.5l-8.9,2.4l31,63.7l3.9,8
		l0,0l80.8,166l13.7-6.7L73.7,103c0.2-0.1,0.5-0.2,0.7-0.2c3.3-1.1,6.6-2.2,9.9-3.2c0.2-0.1,0.4-0.1,0.6-0.2
		c7-2.2,14.1-4.2,21.2-6.2c0.1,0,0.1,0,0.2-0.1c3.5-0.9,7-1.9,10.5-2.7c0.2,0,0.4-0.1,0.6-0.1c3.5-0.9,6.9-1.7,10.4-2.5
		c0.2-0.1,0.5-0.1,0.7-0.2c3.5-0.8,6.9-1.5,10.4-2.3c0.2-0.1,0.5-0.1,0.7-0.1c3.5-0.7,7-1.4,10.5-2.1c0.2,0,0.4-0.1,0.6-0.1
		c3.6-0.7,7.1-1.3,10.7-1.9c0.1,0,0.2,0,0.4-0.1c18.5-3,37.2-5.2,56-6.4c0.2,0,0.3,0,0.5,0c3.6-0.2,7.1-0.4,10.7-0.6
		c0.3,0,0.6,0,0.9,0c3.5-0.2,6.9-0.3,10.4-0.4c0.4,0,0.8,0,1.3,0c3.4-0.1,6.8-0.1,10.2-0.2c0.8,0,1.6,0,2.4,0c1,0,2.1,0,3.1,0
		c1,0,2,0,2.9,0c1,0,2.1,0,3.1,0c1,0,1.9,0,2.9,0c1.1,0,2.1,0,3.2,0.1c1,0,1.9,0,2.9,0.1c1.1,0,2.1,0.1,3.2,0.1c1,0,1.9,0.1,2.9,0.1
		c1,0,2.1,0.1,3.1,0.1c1,0,1.9,0.1,2.9,0.1c1,0.1,2.1,0.1,3.1,0.2c1,0.1,2,0.1,3,0.2c1,0.1,2,0.1,3,0.2c1,0.1,2,0.1,3.1,0.2
		c1,0.1,1.9,0.1,2.9,0.2c1.1,0.1,2.1,0.2,3.2,0.3c0.9,0.1,1.8,0.1,2.8,0.2c1.1,0.1,2.2,0.2,3.4,0.3c0.9,0.1,1.7,0.2,2.6,0.2
		c1.2,0.1,2.4,0.2,3.6,0.4c0.8,0.1,1.5,0.2,2.3,0.2c1.3,0.1,2.7,0.3,4,0.4c0.6,0.1,1.3,0.1,1.9,0.2c1.5,0.2,3,0.4,4.5,0.5
		c0.5,0.1,0.9,0.1,1.4,0.2c1.9,0.2,3.7,0.5,5.6,0.7c0.1,0,0.2,0,0.3,0c8,1.1,15.9,2.4,23.8,3.8c0.1,0,0.1,0,0.2,0
		c1.9,0.3,3.8,0.7,5.6,1.1c0.3,0.1,0.5,0.1,0.8,0.2c1.7,0.3,3.4,0.7,5,1c0.4,0.1,0.8,0.2,1.2,0.3c1.5,0.3,3.1,0.6,4.6,1
		c0.5,0.1,1,0.2,1.5,0.3c1.4,0.3,2.9,0.6,4.3,1c0.6,0.1,1.1,0.3,1.7,0.4c1.4,0.3,2.7,0.6,4.1,1c0.6,0.1,1.2,0.3,1.9,0.4
		c1.3,0.3,2.6,0.6,3.9,1c0.7,0.2,1.3,0.3,2,0.5c1.3,0.3,2.5,0.6,3.8,1c0.7,0.2,1.4,0.4,2.1,0.6c1.2,0.3,2.4,0.6,3.6,1
		c0.7,0.2,1.5,0.4,2.2,0.6c1.2,0.3,2.3,0.6,3.5,1c0.8,0.2,1.5,0.4,2.3,0.7c1.1,0.3,2.3,0.6,3.4,1c0.8,0.2,1.6,0.5,2.4,0.7
		c1.1,0.3,2.2,0.7,3.3,1c0.8,0.3,1.7,0.5,2.5,0.8c1.1,0.3,2.1,0.7,3.2,1c0.8,0.3,1.7,0.5,2.5,0.8c1,0.3,2.1,0.7,3.1,1
		c0.9,0.3,1.7,0.6,2.6,0.9c0.6,0.2,1.2,0.4,1.8,0.6l-6.6,13.6c-24.8-8.1-54.5-15-86.3-20.1l-2.4,15c30.2,4.8,58.3,11.3,81.9,18.9
		L255.9,477.2l-92.4-189.8l-13.7,6.7L255.9,512l199.6-410.1L486.7,38.2z M57.7,48.5c7.7-0.2,15.6-0.4,23.3-2.5
		c7.7-2.1,14.6-6,21.3-9.8c6.9-3.9,13.4-7.6,20-8.9c2.3-0.5,4.9-0.7,7.9-0.7c4.5,0,9.1,0.5,14,1.1c5.1,0.6,10.4,1.2,15.7,1.2
		c2.8,0,5.4-0.2,7.8-0.5c7.9-1.1,15.3-4,22.4-6.8c7.4-2.9,14.3-5.7,21.1-6.1c0.7,0,1.4-0.1,2.1-0.1c6.1,0,12.6,1.6,19.5,3.3
		c7.4,1.9,15.1,3.8,23.1,3.8h0.2c8,0,15.7-2,23.1-3.8c6.9-1.7,13.3-3.3,19.5-3.3c0.7,0,1.4,0,2.1,0.1c6.8,0.5,13.7,3.2,21.1,6.1
		c7.1,2.8,14.5,5.8,22.4,6.8c2.5,0.3,5,0.5,7.8,0.5c5.3,0,10.6-0.6,15.7-1.2c4.9-0.5,9.5-1.1,14-1.1c3,0,5.5,0.2,7.9,0.7
		c6.6,1.4,13.1,5,20,8.9c6.7,3.8,13.6,7.7,21.3,9.8c7.7,2.1,15.6,2.3,23.3,2.5c3.5,0.1,6.9,0.2,10.2,0.4l-19.7,40.2
		c-1.6-0.5-3.1-1-4.7-1.6c-0.3-0.1-0.6-0.2-1-0.3c-2-0.6-3.9-1.3-5.9-1.9c-0.5-0.1-0.9-0.3-1.4-0.4c-1.5-0.5-3-0.9-4.5-1.4
		c-0.7-0.2-1.4-0.4-2.1-0.6c-1.3-0.4-2.6-0.8-3.8-1.1c-0.8-0.2-1.5-0.4-2.3-0.7c-1.2-0.4-2.4-0.7-3.7-1c-0.8-0.2-1.6-0.4-2.4-0.7
		c-1.2-0.3-2.4-0.7-3.6-1c-0.8-0.2-1.6-0.4-2.5-0.7c-1.2-0.3-2.3-0.6-3.5-0.9c-0.8-0.2-1.7-0.4-2.5-0.6c-1.2-0.3-2.3-0.6-3.5-0.9
		c-0.8-0.2-1.7-0.4-2.5-0.6c-1.2-0.3-2.3-0.6-3.5-0.8c-0.8-0.2-1.7-0.4-2.5-0.6c-1.2-0.3-2.4-0.5-3.5-0.8c-0.8-0.2-1.6-0.4-2.5-0.5
		c-1.2-0.3-2.4-0.5-3.6-0.8c-0.8-0.2-1.6-0.3-2.4-0.5c-1.2-0.3-2.5-0.5-3.7-0.8c-0.8-0.2-1.6-0.3-2.3-0.5c-1.3-0.3-2.5-0.5-3.8-0.7
		c-0.8-0.1-1.5-0.3-2.3-0.4c-1.3-0.2-2.6-0.5-3.9-0.7c-0.7-0.1-1.4-0.3-2.1-0.4c-1.4-0.2-2.7-0.5-4.1-0.7c-0.7-0.1-1.3-0.2-2-0.3
		c-1.5-0.2-2.9-0.5-4.4-0.7c-0.6-0.1-1.1-0.2-1.7-0.3c-1.6-0.2-3.2-0.5-4.8-0.7c-0.4-0.1-0.8-0.1-1.3-0.2c-1.9-0.3-3.8-0.5-5.7-0.8
		c-0.1,0-0.3,0-0.4-0.1c-8.3-1.1-16.6-2-25-2.8c-0.3,0-0.6-0.1-0.9-0.1c-1.8-0.2-3.5-0.3-5.3-0.4c-0.5,0-0.9-0.1-1.4-0.1
		c-1.6-0.1-3.2-0.2-4.8-0.4c-0.6,0-1.1-0.1-1.7-0.1c-1.5-0.1-3-0.2-4.5-0.3c-0.6,0-1.2-0.1-1.9-0.1c-1.4-0.1-2.9-0.2-4.3-0.2
		c-0.7,0-1.4-0.1-2-0.1c-1.4-0.1-2.8-0.1-4.2-0.2c-0.7,0-1.5-0.1-2.2-0.1c-1.3,0-2.7-0.1-4-0.1c-0.8,0-1.5,0-2.3-0.1
		c-1.3,0-2.6-0.1-3.9-0.1c-0.8,0-1.6,0-2.5,0c-1.2,0-2.5,0-3.7,0c-0.9,0-1.8,0-2.6,0c-0.5,0-1,0-1.5,0c-0.7,0-1.4,0-2.1,0
		c-0.6,0-1.1,0-1.7,0c-0.4,0-0.7,0-1.1,0c-1.1,0-2.3,0-3.4,0c-0.9,0-1.8,0-2.6,0c-1.2,0-2.5,0.1-3.7,0.1c-0.8,0-1.5,0-2.3,0.1
		c-1.3,0-2.7,0.1-4,0.1c-0.7,0-1.3,0-2,0.1c-1.4,0.1-2.9,0.1-4.3,0.2c-0.6,0-1.2,0.1-1.7,0.1c-1.5,0.1-3.1,0.2-4.6,0.2
		c-0.5,0-1,0.1-1.5,0.1c-1.6,0.1-3.2,0.2-4.8,0.3c-0.4,0-0.8,0.1-1.2,0.1c-1.7,0.1-3.4,0.2-5.1,0.4c-0.3,0-0.6,0-0.9,0.1
		c-1.8,0.1-3.6,0.3-5.3,0.4c-0.2,0-0.5,0-0.7,0.1c-1.9,0.2-3.7,0.3-5.6,0.5c-0.2,0-0.3,0-0.5,0c-1.9,0.2-3.9,0.4-5.8,0.6
		c-0.1,0-0.2,0-0.2,0c-2,0.2-4,0.4-6,0.7c0,0,0,0,0,0c-30.3,3.6-60.2,9.6-89.5,17.9c-0.1,0-0.2,0-0.2,0.1c-1.8,0.5-3.7,1.1-5.5,1.6
		c-0.5,0.2-1,0.3-1.6,0.5c-1.4,0.4-2.8,0.8-4.2,1.3c-0.7,0.2-1.5,0.5-2.2,0.7c-1.2,0.4-2.3,0.7-3.5,1.1c-0.8,0.3-1.7,0.5-2.5,0.8
		c-1.1,0.3-2.1,0.7-3.2,1c-0.9,0.3-1.8,0.6-2.7,0.9c-0.9,0.3-1.8,0.6-2.7,0.9L47.5,49C50.8,48.7,54.2,48.6,57.7,48.5z"/>
	<path class="st4" d="M186.4,99.4c-29.9,0-54.2,24.3-54.2,54.2s24.3,54.2,54.2,54.2s54.2-24.3,54.2-54.2S216.4,99.4,186.4,99.4z
		 M186.4,192.7c-21.5,0-39-17.5-39-39s17.5-39,39-39s39,17.5,39,39S208,192.7,186.4,192.7z"/>
	<path class="st4" d="M212.8,323.9c0,23.7,19.3,43,43,43s43-19.3,43-43s-19.3-43-43-43C232.1,280.8,212.8,300.1,212.8,323.9z
		 M255.9,296c15.3,0,27.8,12.5,27.8,27.8s-12.5,27.8-27.8,27.8s-27.8-12.5-27.8-27.8C228.1,308.5,240.5,296,255.9,296z"/>
	<path class="st4" d="M262.2,239.1c4.1,4.1,9.5,6.3,15.3,6.3c5.6,0,11-2.2,15-6.1l19.4,19.4l35.2-35.2l-19.4-19.4
		c8.2-8.4,8.1-22-0.3-30.3c-6.2-6.2-14.4-9.6-23.1-9.6c-8.7,0-16.9,3.4-23.1,9.6l-19,19C249.4,205.6,249.4,226.4,262.2,239.1z
		 M272.9,203.6l19-19c3.3-3.3,7.7-5.1,12.4-5.1s9.1,1.8,12.4,5.1c2.5,2.5,2.5,6.6,0,9l-10.5,10.5l19.4,19.4l-13.7,13.7l-19.4-19.4
		L282,228.4c-1.2,1.2-2.8,1.9-4.5,1.9c-1.7,0-3.3-0.7-4.5-1.9C266.1,221.5,266.1,210.5,272.9,203.6z"/>
</g>
<text transform="matrix(0.4988 1.04 -0.9017 0.4324 -15.2583 153.6638)" class="st5 st6">Rocket</text>
<text transform="matrix(0.5054 -1.0368 0.8989 0.4382 374.9034 470.9291)" class="st7 st5 st6">Pizza</text>
</svg>
